<?xml version="1.0" standalone="no"?><!-- Generator: Gravit.io --><svg xmlns="http://www.w3.org/2000/svg" xmlns:xlink="http://www.w3.org/1999/xlink" style="isolation:isolate" viewBox="1 -3.4 99 99" width="99" height="99"><g transform="translate(0,0)"><g id="null"><path d=" M 1 46.6 C 1 19.004 23.404 -3.4 51 -3.4 C 78.596 -3.4 101 19.004 101 46.6 C 101 74.196 78.596 96.6 51 96.6 C 23.404 96.6 1 74.196 1 46.6 Z " fill="rgb(247,247,247)"/><path d=" M 51.36 19.96 L 57.44 34.76 L 79.6 34.76 L 85.52 19.96 L 93.36 19.96 L 70.32 76.76 L 66.16 76.76 L 43.04 19.96 L 51.36 19.96 Z  M 70.72 57.08 L 77.2 41.32 L 59.76 41.32 L 66.24 57.24 L 68.4 65.8 L 68.56 65.8 L 70.72 57.08 Z " fill-rule="evenodd" fill="rgb(136,136,136)"/><path d=" M 43.88 76.04 L 43.88 20.04 L 10.04 20.04 L 10.04 27.08 L 35.88 27.08 L 35.88 44.76 L 11.88 44.76 L 11.88 51.8 L 35.88 51.8 L 35.88 76.04 L 43.88 76.04 Z " fill="rgb(68,68,68)"/></g></g></svg>